<svg width="101" height="111" viewBox="0 0 101 111" fill="none" xmlns="http://www.w3.org/2000/svg">
<g opacity="0.8">
<path d="M100.965 26.5268C101.161 41.1721 89.4475 53.0445 74.8008 53.0445C60.1542 53.0445 48.1212 41.1721 47.9244 26.5268C47.7276 11.8814 59.4415 0.0090332 74.0882 0.0090332C88.7348 0.0090332 100.768 11.8814 100.965 26.5268Z" fill="#42945E"/>
<path d="M74.6185 79.5688L97.5856 39.7887H51.6514L74.6185 79.5688Z" fill="#42945E"/>
</g>
<circle r="13.2601" transform="matrix(1 0 0.0134361 0.99991 74.7966 26.5277)" fill="white"/>
<g opacity="0.8">
<path d="M35.684 75.0239C35.8152 84.7875 28.0059 92.7024 18.2415 92.7024C8.47706 92.7024 0.45506 84.7875 0.323864 75.0239C0.192669 65.2604 8.00196 57.3455 17.7664 57.3455C27.5308 57.3455 35.5528 65.2604 35.684 75.0239Z" fill="#42945E"/>
<path d="M18.12 110.385L33.4314 83.8652H2.80858L18.12 110.385Z" fill="#42945E"/>
</g>
<circle r="8.84004" transform="matrix(1 0 0.0134361 0.99991 18.2387 75.0245)" fill="#C7E2C5"/>
</svg>
