<svg width="232" height="90" viewBox="0 0 232 90" fill="none" xmlns="http://www.w3.org/2000/svg">
<circle opacity="0.8" cx="31.4767" cy="18.7695" r="5.82323" fill="#42945E"/>
<path d="M231.706 80.1372C231.706 65.2937 219.673 53.2607 204.83 53.2607H113.45C103.554 53.2607 95.5322 61.2827 95.5322 71.1784V71.1784C95.5322 81.074 103.554 89.096 113.45 89.096H231.706V80.1372Z" fill="#C7E2C5"/>
<circle opacity="0.7" cx="169.442" cy="71.6267" r="5.82323" fill="#0B5625"/>
<circle opacity="0.8" cx="49.3943" cy="18.7695" r="5.82323" fill="#42945E"/>
<circle opacity="0.7" cx="187.36" cy="71.6267" r="5.82323" fill="#0B5625"/>
<circle opacity="0.8" cx="67.312" cy="18.7695" r="5.82323" fill="#42945E"/>
<circle opacity="0.7" cx="205.278" cy="71.6267" r="5.82323" fill="#0B5625"/>
<path opacity="0.6" d="M0.568726 27.2803C0.568726 12.4368 12.6017 0.403809 27.4452 0.403809H99.1157C109.011 0.403809 117.033 8.42581 117.033 18.3214V18.3214C117.033 28.2171 109.011 36.2391 99.1157 36.2391H0.568726V27.2803Z" fill="#42945E"/>
</svg>
